# xmcd CD database file
#
# Track frame offsets:
#	150
#	15005
#	26021
#	36163
#	43200
#	58254
#	73124
#	90757
#	104667
#	119770
#	133431
#	154517
#	167802
#	185842
#	211114
#
# Disc length: 2992 seconds
#
# Revision: 0
# Processed by: cddbd v1.5.2PL0 Copyright (c) Steve Scherf et al.
# Submitted via: CDex 1.70beta2
#
DISCID=d50bae0f
DTITLE=Louis Armstrong - Originals
DYEAR=1900
DGENRE=Jazz
TTITLE0=Mack The Knife
TTITLE1=Hello Dolly
TTITLE2=What a Wonderful World
TTITLE3=When The Saint Go Marching In
TTITLE4=La Vie En Rose
TTITLE5=C'est Si Bon
TTITLE6=Cabaret
TTITLE7=Dream a Little Dream on Me
TTITLE8=On the Sunny Side of the Street
TTITLE9=St Louis Blues
TTITLE10=Jeepers Creepers
TTITLE11=High Society
TTITLE12=Ain't Misbehavin'
TTITLE13=Basin' Street Blues
TTITLE14=Kiss to Build a Dream on
EXTD=
EXTT0=
EXTT1=
EXTT2=
EXTT3=
EXTT4=
EXTT5=
EXTT6=
EXTT7=
EXTT8=
EXTT9=
EXTT10=
EXTT11=
EXTT12=
EXTT13=
EXTT14=
PLAYORDER=
